<?xml version="1.0" encoding="utf-8"?>
<!-- Generator: Adobe Illustrator 24.2.1, SVG Export Plug-In . SVG Version: 6.00 Build 0)  -->
<svg version="1.1" id="Ebene_1" xmlns="http://www.w3.org/2000/svg" xmlns:xlink="http://www.w3.org/1999/xlink" x="0px" y="0px"
	 viewBox="0 0 612 792" style="enable-background:new 0 0 612 792;" xml:space="preserve">
<style type="text/css">
	.st0{fill:#FF4081;}
	.st1{fill:#FFFFFF;}
</style>
<g>
	<path class="st0" d="M694.2,573.9c0,21.1-0.3,42.2,0.1,63.3c0.2,8.1-2.7,13.9-10.4,16.3c-19.6,6-39,13.2-59.1,16.5
		c-38.3,6.3-77,11-115.6,14.8c-37.1,3.7-74.3,6.1-111.5,8.1c-41.6,2.3-83.3,4.2-125,5c-76.3,1.5-152.7,1.9-229,3.1
		c-8.6,0.1-14.2-3.3-16.2-10.6c-6.3-22.3-13.9-44.5-17.4-67.2C3.7,580.5-1.1,537.5-5.1,494.6c-3.9-42.2-6.2-84.5-8.4-126.9
		c-2.3-44.5-3.7-89-5-133.6c-1-34.4-1.2-68.9-1.9-103.3c-0.4-20.6-0.5-41.1-1.4-61.6c-0.4-8.6,3.2-14.3,11.2-16.5
		c22.9-6.1,45.8-13.5,69.2-16.8c43.9-6.3,88.1-11,132.2-14.8c43.1-3.7,86.4-6.1,129.7-8.1c46.6-2.2,93.2-3.6,139.9-5
		c29.1-0.9,58.2-1.1,87.3-1.6C575,6,602.2,5.7,629.3,5c7.6-0.2,13.4,2.4,15.6,9.2c6.4,19.8,14,39.4,17.6,59.7
		c6.5,37,11.2,74.3,15.2,111.6c3.8,35.5,6.2,71.1,8.3,106.8c2.3,40.2,4,80.4,5.2,120.7c1.6,53.6,2.6,107.3,3.8,160.9
		C694.7,573.9,694.5,573.9,694.2,573.9z M326.6,255.6c-2-2.4-3.4-3.9-4.7-5.6c-21.6-27.9-43.1-55.9-64.9-83.7
		c-8.7-11.1-9-10.9-22.5-5.1c-17,7.3-20.9,4.4-7.5,24.2c23.2,34.3,47,68.3,70.9,102.2c3.8,5.3,3.6,9.5,0.2,14.5
		c-13.1,19.4-26.7,38.5-38.7,58.5c-14.1,23.4-26.8,47.7-40.1,71.6c-3.4,6.1-2.6,10.4,4.6,13.2c5.3,2,10.6,4.6,15.4,7.6
		c5,3.1,8,1.4,10.8-2.7c25-35.7,50.3-71.3,75.1-107.2c4.3-6.2,6.1-4.9,9.6,0.3c22.3,32.7,44.9,65.2,67.4,97.8
		c6.7,9.8,15.4,15.4,28.1,14.8c8.8-0.4,14.2-4.7,18.1-11.7c3.9-6.9,3.4-13.2-1.7-19.3c-2-2.5-3.5-5.4-5.4-8
		c-26.4-36.1-52.6-72.3-79.4-108.2c-4.8-6.4-4.4-10.9,0.2-16.9c24.4-32.2,48.2-64.9,72.9-96.9c5.8-7.5,6.9-14,3-21.9
		c-4.9-9.9-11.9-17.5-23.9-18.5c-10.7-0.9-18.1,4.4-23.6,13.1c-5,7.9-10.8,15.4-16.4,23C358.6,212,343,233.3,326.6,255.6z"/>
	<path class="st1" d="M326.6,255.6c16.4-22.3,32-43.6,47.5-64.9c5.6-7.6,11.4-15.1,16.4-23c5.5-8.7,12.9-14,23.6-13.1
		c12,1,19,8.6,23.9,18.5c3.9,7.9,2.8,14.4-3,21.9c-24.7,32-48.5,64.7-72.9,96.9c-4.6,6-5,10.5-0.2,16.9
		c26.7,35.9,53,72.1,79.4,108.2c1.9,2.6,3.4,5.5,5.4,8c5,6.2,5.6,12.5,1.7,19.3c-4,7-9.3,11.3-18.1,11.7c-12.7,0.6-21.4-5-28.1-14.8
		c-22.4-32.6-45-65.1-67.4-97.8c-3.5-5.2-5.3-6.5-9.6-0.3c-24.8,35.9-50,71.5-75.1,107.2c-2.9,4.1-5.8,5.9-10.8,2.7
		c-4.8-3-10.1-5.5-15.4-7.6c-7.3-2.8-8-7.1-4.6-13.2c13.3-23.9,26-48.2,40.1-71.6c12-20,25.7-39.1,38.7-58.5c3.4-5,3.6-9.2-0.2-14.5
		c-23.9-33.9-47.7-67.9-70.9-102.2c-13.4-19.9-9.5-17,7.5-24.2c13.4-5.7,13.8-5.9,22.5,5.1c21.8,27.8,43.3,55.8,64.9,83.7
		C323.2,251.6,324.6,253.2,326.6,255.6z"/>
</g>
</svg>
